<mxfile host="app.diagrams.net" modified="2023-05-29T03:36:25.690Z" agent="Mozilla/5.0 (Macintosh; Intel Mac OS X 10_15_7) AppleWebKit/537.36 (KHTML, like Gecko) Chrome/113.0.0.0 Safari/537.36" version="21.3.5" etag="NolGm8xAYL2v2T_uIoRt" type="github">
  <diagram name="第 1 页" id="DGXnSbWPGftAZ1HGWl84">
    <mxGraphModel>
      <root>
        <mxCell id="0" />
        <mxCell id="1" parent="0" />
      </root>
    </mxGraphModel>
  </diagram>
</mxfile>
